<svg width="318" height="59" viewBox="0 0 318 59" fill="none" xmlns="http://www.w3.org/2000/svg">
<rect x="16.0981" y="0.192383" width="3.68249" height="9.20621" rx="1.84125" fill="white"/>
<rect x="38.1924" y="0.192383" width="3.68249" height="9.20621" rx="1.84125" fill="white"/>
<path fill-rule="evenodd" clip-rule="evenodd" d="M32.9731 30.7556C32.7807 32.2544 32.159 33.6178 31.2311 34.7166C30.257 35.8768 28.9459 36.7432 27.4487 37.1679L27.384 37.1864L27.2378 37.2249L27.2255 37.2279L15.6304 40.3364V37.6403C15.6304 37.5803 15.6304 37.5203 15.6365 37.4603C15.7042 36.3323 16.4136 35.3752 17.4047 34.952C17.517 34.9028 17.6324 34.8612 17.7524 34.8289L17.8617 34.7996L32.9715 30.751V30.7556H32.9731Z" fill="white"/>
<path fill-rule="evenodd" clip-rule="evenodd" d="M42.34 20.8157C41.9461 23.8919 39.7347 26.4002 36.8156 27.2281L36.7509 27.2465L36.6063 27.285H36.6047L36.5924 27.2881L15.6304 32.9048V30.2088C15.6304 29.0023 16.3613 27.9667 17.4047 27.5204L17.7524 27.3973L17.8601 27.3681L42.3385 20.8096V20.8157H42.34Z" fill="white"/>
<path d="M45.0972 2.95508C51.4526 2.95513 56.6048 8.10748 56.605 14.4629V40.5098H52.9224V14.4629C52.9222 10.1413 49.4188 6.63775 45.0972 6.6377H12.8755C8.55378 6.6377 5.05043 10.1412 5.05029 14.4629V46.6846C5.05029 51.0064 8.55369 54.5098 12.8755 54.5098H38.7778V58.1914H45.1714C45.1467 58.1916 45.1219 58.1924 45.0972 58.1924H12.8755C6.51991 58.1924 1.36768 53.0401 1.36768 46.6846V14.4629C1.36782 8.10745 6.51999 2.95508 12.8755 2.95508H45.0972Z" fill="white"/>
<path d="M56.6323 40.9385L39.3804 58.1904H38.7778V45.5674C38.7778 42.678 41.1199 40.3351 44.0093 40.335H56.6323V40.9385Z" fill="white"/>
<path d="M80.0079 14.6006C80.5341 14.548 80.9354 14.6203 81.2117 14.8178C81.4879 15.0153 81.6261 15.3248 81.6261 15.7461C81.6261 16.5625 81.1788 17.0103 80.2841 17.0893L79.1396 17.1682C77.6397 17.2735 76.5213 17.7278 75.7845 18.5311C75.0477 19.3342 74.6136 20.5391 74.4819 22.1455L74.403 23.2516H78.7053C79.1263 23.2516 79.4487 23.3635 79.6724 23.5873C79.896 23.8112 80.0079 24.1075 80.0079 24.4762C80.0079 24.8712 79.8894 25.1871 79.6526 25.4242C79.4158 25.6612 79.0737 25.7796 78.6264 25.7796H74.2057L72.982 41.146C72.9557 41.6464 72.7847 42.0283 72.469 42.2917C72.1532 42.5549 71.7716 42.6867 71.3243 42.6867C70.877 42.6867 70.502 42.5549 70.1994 42.2917C69.8969 42.0283 69.7587 41.6464 69.785 41.146L71.0085 25.7796H68.3641C67.9431 25.7796 67.6207 25.6677 67.397 25.4439C67.1734 25.2201 67.0615 24.9239 67.0615 24.5552C67.0615 24.1601 67.18 23.8441 67.4167 23.607C67.6536 23.3701 68.0088 23.2516 68.4825 23.2516H71.2059L71.2454 22.5405C71.4295 19.986 72.1796 18.0702 73.4952 16.7929C74.8109 15.5157 76.7186 14.7981 79.2185 14.64L80.0079 14.6006Z" fill="white"/>
<path d="M83.9152 42.6869C83.4679 42.6869 83.0995 42.5551 82.8101 42.2919C82.5206 42.0285 82.389 41.6335 82.4154 41.1067L84.4283 15.9044C84.4546 15.404 84.6389 15.0288 84.981 14.7786C85.3231 14.5283 85.7178 14.4033 86.1651 14.4033C86.6124 14.4033 86.9742 14.5283 87.2504 14.7786C87.5268 15.0288 87.6518 15.404 87.6255 15.9044L85.6124 41.1067C85.5861 41.6335 85.4086 42.0285 85.0796 42.2919C84.7507 42.5551 84.3626 42.6869 83.9152 42.6869Z" fill="white"/>
<path d="M106.847 22.8574C107.321 22.8574 107.696 22.9957 107.972 23.2722C108.249 23.5486 108.36 23.9372 108.308 24.4375L106.966 41.2259C106.94 41.6735 106.762 42.0291 106.433 42.2925C106.104 42.5558 105.716 42.6875 105.269 42.6875C104.821 42.6875 104.466 42.5624 104.203 42.3122C103.94 42.0621 103.821 41.7131 103.848 41.2654L104.005 39.3693C103.348 40.4491 102.466 41.2851 101.361 41.8777C100.256 42.4702 99.0191 42.7665 97.6507 42.7665C95.5194 42.7665 93.9011 42.2069 92.7959 41.0876C91.6907 39.9685 91.1382 38.3291 91.1382 36.1696C91.1382 35.6956 91.1513 35.34 91.1776 35.1031L92.0065 24.4375C92.0591 23.9372 92.2498 23.5486 92.5789 23.2722C92.9077 22.9957 93.2958 22.8574 93.7433 22.8574C94.2169 22.8574 94.5919 22.9957 94.8682 23.2722C95.1444 23.5486 95.2562 23.9372 95.2036 24.4375L94.3747 34.9056C94.3484 35.0899 94.3353 35.3664 94.3353 35.735C94.3353 38.6319 95.7168 40.0804 98.4797 40.0804C100.19 40.0804 101.558 39.5536 102.585 38.5003C103.611 37.4469 104.19 35.9853 104.321 34.1156L105.111 24.4375C105.163 23.9372 105.354 23.5486 105.683 23.2722C106.012 22.9957 106.4 22.8574 106.847 22.8574Z" fill="white"/>
<path d="M115.254 33.3638V33.5219C115.254 35.6286 115.774 37.2614 116.813 38.4201C117.853 39.5788 119.359 40.1582 121.333 40.1582C123.411 40.1582 125.24 39.5788 126.819 38.4201C127.082 38.2358 127.345 38.1436 127.609 38.1436C127.924 38.1436 128.181 38.2621 128.378 38.4992C128.576 38.7361 128.674 39.0126 128.674 39.3287C128.674 39.8028 128.464 40.2372 128.043 40.6322C127.332 41.2643 126.339 41.7779 125.063 42.1729C123.786 42.5679 122.491 42.7654 121.175 42.7654C118.386 42.7654 116.169 41.9227 114.524 40.2372C112.879 38.5518 112.057 36.287 112.057 33.4428C112.057 31.3361 112.445 29.4795 113.222 27.873C113.998 26.2666 115.103 25.0157 116.537 24.1204C117.971 23.225 119.635 22.7773 121.53 22.7773C124.109 22.7773 126.082 23.5475 127.451 25.0882C128.819 26.6287 129.503 28.8607 129.503 31.7838C129.503 32.2841 129.372 32.6726 129.108 32.9491C128.845 33.2256 128.49 33.3638 128.043 33.3638H115.254ZM121.649 25.266C119.885 25.266 118.478 25.786 117.425 26.8262C116.373 27.8665 115.702 29.361 115.412 31.3098H126.622C126.701 29.3347 126.299 27.8336 125.418 26.8065C124.536 25.7794 123.28 25.266 121.649 25.266Z" fill="white"/>
<path d="M144.186 22.7773C146.344 22.7773 147.989 23.3435 149.12 24.4759C150.252 25.6083 150.817 27.2542 150.817 29.4137C150.817 29.8877 150.804 30.2433 150.778 30.4802L149.949 41.1062C149.897 41.633 149.712 42.028 149.397 42.2914C149.081 42.5547 148.699 42.6864 148.252 42.6864C147.752 42.6864 147.364 42.5547 147.087 42.2914C146.811 42.028 146.699 41.633 146.752 41.1062L147.581 30.6777C147.607 30.4934 147.62 30.2169 147.62 29.8482C147.62 26.925 146.213 25.4635 143.397 25.4635C141.608 25.4635 140.187 25.9968 139.134 27.0633C138.082 28.1298 137.477 29.5979 137.319 31.4677L136.529 41.1062C136.503 41.633 136.332 42.028 136.016 42.2914C135.7 42.5547 135.306 42.6864 134.832 42.6864C134.358 42.6864 133.983 42.5547 133.707 42.2914C133.431 42.028 133.306 41.633 133.332 41.1062L134.713 24.3574C134.74 23.8834 134.917 23.5147 135.246 23.2513C135.575 22.9879 135.963 22.8563 136.411 22.8563C136.858 22.8563 137.213 22.9879 137.477 23.2513C137.74 23.5147 137.858 23.8702 137.832 24.3179L137.674 26.214C138.332 25.1342 139.226 24.2915 140.358 23.6859C141.489 23.0802 142.765 22.7773 144.186 22.7773Z" fill="white"/>
<path d="M160.487 35.5365C160.461 35.721 160.448 35.9843 160.448 36.3266C160.448 37.5907 160.737 38.552 161.316 39.2102C161.895 39.8686 162.711 40.1979 163.763 40.1979C164.105 40.1979 164.434 40.1781 164.75 40.1386C165.066 40.0991 165.303 40.0794 165.46 40.0794C165.724 40.0794 165.941 40.1847 166.112 40.3954C166.283 40.606 166.368 40.8957 166.368 41.2644C166.368 41.8174 166.138 42.2059 165.677 42.4298C165.217 42.6536 164.408 42.7655 163.25 42.7655C161.355 42.7655 159.882 42.2256 158.829 41.1459C157.777 40.0661 157.251 38.5387 157.251 36.5636C157.251 36.1949 157.264 35.9052 157.29 35.6946L158.04 25.7795H155.435C155.014 25.7795 154.691 25.6676 154.468 25.4438C154.244 25.2199 154.132 24.9237 154.132 24.555C154.132 24.1337 154.257 23.811 154.507 23.5872C154.757 23.3634 155.106 23.2514 155.553 23.2514H158.237L158.592 18.7482C158.645 18.3005 158.823 17.9384 159.125 17.6619C159.428 17.3853 159.816 17.2471 160.29 17.2471C160.79 17.2471 161.178 17.3919 161.454 17.6816C161.73 17.9714 161.842 18.3531 161.79 18.8271L161.434 23.2514H165.776C166.171 23.2514 166.487 23.3634 166.723 23.5872C166.96 23.811 167.079 24.1074 167.079 24.4761C167.079 24.8974 166.96 25.2199 166.723 25.4438C166.487 25.6676 166.145 25.7795 165.697 25.7795H161.237L160.487 35.5365Z" fill="white"/>
<path d="M312.91 22.8745H317.126V41.8454C317.126 44.8681 316.132 47.1881 314.143 48.8054C312.155 50.4228 309.742 51.2315 306.905 51.2315C302.318 51.2315 299.176 49.6274 297.479 46.4191L301.178 44.2715C302.212 46.3131 304.147 47.3339 306.984 47.3339C308.84 47.3339 310.286 46.8434 311.32 45.8623C312.38 44.9078 312.91 43.5689 312.91 41.8454V39.4194C311.293 41.7261 308.986 42.8795 305.99 42.8795C303.18 42.8795 300.807 41.8852 298.871 39.8966C296.936 37.8815 295.968 35.4555 295.968 32.6184C295.968 29.7814 296.936 27.3686 298.871 25.3801C300.807 23.365 303.18 22.3574 305.99 22.3574C308.986 22.3574 311.293 23.5108 312.91 25.8175V22.8745ZM302.053 37.0729C303.272 38.266 304.784 38.8626 306.587 38.8626C308.39 38.8626 309.888 38.266 311.081 37.0729C312.301 35.8797 312.91 34.3949 312.91 32.6184C312.91 30.842 312.301 29.3572 311.081 28.1641C309.888 26.9709 308.39 26.3743 306.587 26.3743C304.784 26.3743 303.272 26.9709 302.053 28.1641C300.86 29.3572 300.263 30.842 300.263 32.6184C300.263 34.3949 300.86 35.8797 302.053 37.0729Z" fill="white"/>
<path d="M284.82 22.3574C287.1 22.3574 288.943 23.0866 290.348 24.5448C291.754 26.0031 292.456 28.005 292.456 30.5503V42.7602H288.161V30.9878C288.161 29.503 287.763 28.3629 286.968 27.5675C286.172 26.772 285.085 26.3743 283.707 26.3743C282.195 26.3743 280.976 26.8516 280.048 27.8061C279.12 28.7341 278.656 30.1659 278.656 32.1014V42.7602H274.36V22.8745H278.656V25.4198C279.955 23.3782 282.01 22.3574 284.82 22.3574Z" fill="white"/>
<path d="M269.134 19.0964C268.604 19.6266 267.968 19.8918 267.225 19.8918C266.483 19.8918 265.833 19.6266 265.276 19.0964C264.746 18.5395 264.481 17.8899 264.481 17.1475C264.481 16.4051 264.746 15.7688 265.276 15.2385C265.807 14.6817 266.456 14.4033 267.225 14.4033C267.994 14.4033 268.644 14.6817 269.174 15.2385C269.704 15.7688 269.969 16.4051 269.969 17.1475C269.969 17.8899 269.691 18.5395 269.134 19.0964ZM265.078 42.7604V22.8746H269.373V42.7604H265.078Z" fill="white"/>
<path d="M262.189 42.7599H257.058L248.905 33.5727V42.7599H244.61V14.9199H248.905V31.6637L256.621 22.8742H261.871L253.121 32.6182L262.189 42.7599Z" fill="white"/>
<path d="M230.226 43.2772C227.309 43.2772 224.83 42.2697 222.788 40.2546C220.747 38.2395 219.726 35.7604 219.726 32.8173C219.726 29.8742 220.747 27.3951 222.788 25.3801C224.83 23.365 227.309 22.3574 230.226 22.3574C233.169 22.3574 235.648 23.365 237.663 25.3801C239.705 27.3951 240.725 29.8742 240.725 32.8173C240.725 35.7604 239.705 38.2395 237.663 40.2546C235.648 42.2697 233.169 43.2772 230.226 43.2772ZM225.811 37.3115C227.004 38.5046 228.476 39.1012 230.226 39.1012C231.976 39.1012 233.447 38.5046 234.64 37.3115C235.834 36.1183 236.43 34.6203 236.43 32.8173C236.43 31.0143 235.834 29.5163 234.64 28.3231C233.447 27.13 231.976 26.5334 230.226 26.5334C228.476 26.5334 227.004 27.13 225.811 28.3231C224.618 29.5163 224.021 31.0143 224.021 32.8173C224.021 34.6203 224.618 36.1183 225.811 37.3115Z" fill="white"/>
<path d="M206.456 43.2772C203.54 43.2772 201.061 42.2697 199.019 40.2546C196.977 38.2395 195.957 35.7604 195.957 32.8173C195.957 29.8742 196.977 27.3951 199.019 25.3801C201.061 23.365 203.54 22.3574 206.456 22.3574C209.399 22.3574 211.878 23.365 213.893 25.3801C215.935 27.3951 216.956 29.8742 216.956 32.8173C216.956 35.7604 215.935 38.2395 213.893 40.2546C211.878 42.2697 209.399 43.2772 206.456 43.2772ZM202.042 37.3115C203.235 38.5046 204.706 39.1012 206.456 39.1012C208.206 39.1012 209.678 38.5046 210.871 37.3115C212.064 36.1183 212.661 34.6203 212.661 32.8173C212.661 31.0143 212.064 29.5163 210.871 28.3231C209.678 27.13 208.206 26.5334 206.456 26.5334C204.706 26.5334 203.235 27.13 202.042 28.3231C200.848 29.5163 200.252 31.0143 200.252 32.8173C200.252 34.6203 200.848 36.1183 202.042 37.3115Z" fill="white"/>
<path d="M189.266 28.3229C190.485 28.9592 191.44 29.8342 192.129 30.9478C192.819 32.0614 193.163 33.3474 193.163 34.8056C193.163 37.0859 192.355 38.9816 190.737 40.493C189.12 42.0043 187.145 42.7599 184.811 42.7599H172.88V14.9199H183.936C186.217 14.9199 188.139 15.6623 189.703 17.1471C191.294 18.6054 192.089 20.4349 192.089 22.6356C192.089 25.0484 191.148 26.9442 189.266 28.3229ZM183.936 19.2152H177.454V26.5332H183.936C184.944 26.5332 185.792 26.1885 186.482 25.4991C187.171 24.7832 187.516 23.9083 187.516 22.8742C187.516 21.8402 187.171 20.9784 186.482 20.2891C185.792 19.5732 184.944 19.2152 183.936 19.2152ZM184.811 38.4646C185.872 38.4646 186.76 38.0934 187.476 37.351C188.218 36.5821 188.59 35.6541 188.59 34.567C188.59 33.4799 188.218 32.5652 187.476 31.8228C186.76 31.0539 185.872 30.6694 184.811 30.6694H177.454V38.4646H184.811Z" fill="white"/>
</svg>
