<svg width="286" height="300" viewBox="0 0 286 300" fill="none" xmlns="http://www.w3.org/2000/svg">
<rect x="76.1865" width="19.0474" height="47.6183" rx="9.52369" fill="black"/>
<rect x="190.47" width="19.0474" height="47.6183" rx="9.52369" fill="black"/>
<path fill-rule="evenodd" clip-rule="evenodd" d="M163.486 158.086C162.491 165.839 159.275 172.891 154.476 178.574C149.437 184.576 142.656 189.057 134.911 191.254L134.577 191.349L133.821 191.548L133.757 191.564L73.7822 207.642V193.697C73.7822 193.387 73.7822 193.076 73.814 192.766C74.1643 186.932 77.8336 181.981 82.9595 179.792C83.5406 179.537 84.1375 179.322 84.7584 179.155L85.3235 179.004L163.478 158.062V158.086H163.486Z" fill="black"/>
<path fill-rule="evenodd" clip-rule="evenodd" d="M211.935 106.672C209.898 122.583 198.46 135.557 183.361 139.84L183.027 139.935L182.278 140.134H182.27L182.207 140.15L73.7822 169.202V155.257C73.7822 149.017 77.563 143.66 82.9595 141.352L84.7584 140.715L85.3156 140.564L211.927 106.641V106.672H211.935Z" fill="black"/>
<path d="M226.188 14.29C259.062 14.2902 285.711 40.94 285.711 73.8135V208.538H266.664V73.8135C266.664 51.4595 248.542 33.3381 226.188 33.3379H59.5234C37.1693 33.3379 19.0479 51.4594 19.0479 73.8135V240.478C19.048 262.831 37.1694 280.953 59.5234 280.953H193.501V299.997H226.649C226.496 299.998 226.342 300 226.188 300H59.5234C26.6498 300 0.000135831 273.351 0 240.478V73.8135C0 40.9399 26.6498 14.2901 59.5234 14.29H226.188Z" fill="black"/>
<path d="M285.854 210.76L196.616 299.997H193.501V234.706C193.501 219.761 205.617 207.645 220.562 207.645H285.854V210.76Z" fill="black"/>
</svg>
